<?xml version="1.0" encoding="utf-8"?>
<!-- Generator: Adobe Illustrator 27.8.1, SVG Export Plug-In . SVG Version: 6.00 Build 0)  -->
<svg version="1.1" id="Layer_1" xmlns="http://www.w3.org/2000/svg" xmlns:xlink="http://www.w3.org/1999/xlink" x="0px" y="0px"
	 viewBox="0 0 243 386" style="enable-background:new 0 0 243 386;" xml:space="preserve">
<style type="text/css">
	.st0{fill:#FFFCF3;}
	.st1{fill:#081E3D;}
	.st2{fill:#FFFFFF;}
	.st3{fill:#214737;}
	.st4{fill:#FFE783;}
	.st5{fill:#FFFFFF;stroke:#000000;stroke-width:3;stroke-miterlimit:10;}
	.st6{fill:#F7AA3A;}
	.st7{fill:#F97F06;}
	.st8{fill:none;stroke:#000000;stroke-width:10;stroke-miterlimit:10;}
	.st9{fill:none;stroke:#000000;stroke-width:8;stroke-miterlimit:10;}
	.st10{fill:#FFFFFF;stroke:#000000;stroke-miterlimit:10;}
	.st11{fill:none;stroke:#000000;stroke-width:7;stroke-miterlimit:10;}
	.st12{fill:none;stroke:#000000;stroke-width:5;stroke-miterlimit:10;}
	.st13{fill:#F9F8EF;}
	.st14{fill:none;stroke:#213507;stroke-width:8;stroke-miterlimit:10;}
	.st15{fill:#FFC306;}
	.st16{fill:#2B3521;}
	.st17{fill:none;stroke:#214737;stroke-width:9;stroke-miterlimit:10;}
	.st18{fill:#0A2FA5;}
	.st19{fill:#FFFBCC;}
	.st20{fill:none;stroke:#214737;stroke-width:8;stroke-miterlimit:10;}
	.st21{fill:#242330;}
	.st22{fill:#173527;}
	.st23{opacity:0.2;fill:#FFFFFF;}
	.st24{fill:#606060;}
	.st25{fill:#4273B6;}
	.st26{fill:#001109;}
	.st27{fill:none;stroke:#4273B6;stroke-miterlimit:10;}
	.st28{fill:#5485B2;}
	.st29{fill:#223E66;}
	.st30{fill:none;stroke:#5485B2;stroke-miterlimit:10;}
	.st31{fill:none;stroke:#5485B2;stroke-miterlimit:10;stroke-dasharray:15.0287,15.0287;}
	.st32{fill:none;stroke:#5485B2;stroke-miterlimit:10;stroke-dasharray:15.2344,15.2344;}
	.st33{fill:none;stroke:#5485B2;stroke-miterlimit:10;stroke-dasharray:15.0658,15.0658;}
	.st34{fill:none;stroke:#5485B2;stroke-miterlimit:10;stroke-dasharray:15;}
	.st35{fill:none;stroke:#5485B2;stroke-miterlimit:10;stroke-dasharray:15,15;}
</style>
<g>
	<path class="st22" d="M215.61,153.73c-2.54-2.31-5.17-4.52-7.55-6.58c-0.07-0.02,0.26,0.02,0.56,0.14c1.41,0.55,2.41,0.5,2.85-1.3
		c0.19-0.76,0.86-1.67,1.54-1.96c0.96-0.4,1.18-0.76,0.82-1.67c-0.15-0.36-0.22-0.81-0.15-1.19c0.45-2.36,0.96-4.71,1.44-7.03
		c-0.94-0.25-1.77-0.23-2.22-0.64c-2.82-2.53-5.84-1.97-8.9-0.69c-1.73,0.72-3.08,3.09-2.86,4.62c0.29,1.97,0.59,3.93,0.73,5.91
		c0.03,0.48-0.59,1.44-0.83,1.42c-1.23-0.13-2.62-0.22-3.6-0.85c-2.26-1.46-4.54-2.72-7.27-2.87c-2.94-0.16-4.92-2.18-6.92-3.87
		c-0.77-0.72-3-5.61-3-5.61l1.75,5.87c0.09,1.42,0.65,2.84,1.11,4.22c1.39,4.2,2.82,8.39,4.24,12.58l0.24-0.07
		c-0.71-2.36-1.42-4.73-2.23-7.43c2.14,1.04,3.91,1.91,5.52,2.7c0,2.52,0.01,4.79-0.01,7.07c0,0.76,0.13,1.6-0.15,2.26
		c-0.95,2.31-0.45,4.54,0.35,6.67c1.55,4.17,3.25,8.29,4.96,12.41c1.24,3,2.58,5.96,3.88,8.93c-0.01,0-0.03-0.01-0.04-0.01
		c-0.03,0.35-0.05,0.7-0.08,1.06c-0.18,0.05-0.36,0.1-0.54,0.16c-3.88-6.21-6.24-13.13-9.14-19.84c0.13,0.63,0.25,1.27,0.4,2.01
		c-0.55-0.21-0.97-0.3-1.29-0.52c-1.46-0.98-2.94-1.95-4.33-3.02c-2.91-2.23-5.09-2.14-7.52,0.53c-0.61,0.68-1.04,1.56-1.42,2.41
		c-1.67,3.68-3.13,7.47-4.98,11.06c-1.11,2.16-2.65,3.94-5.55,4.29c-2.96,0.35-4.9-1.43-7.22-2.61c2.83,1.05,5.64,2.35,8.71,1.44
		c2.12-0.63,4.52-4.45,4.82-7.23c-3.3,0.8-5.7,4.27-9.77,3.26c0.01-0.04,0.03-0.06,0.04-0.09c-0.39-0.07-0.78-0.14-1.16-0.26
		c-0.04-0.01-0.07-0.04-0.11-0.05c-3.27,2.82-6.68,5.5-9.74,8.53c-1.89,1.88-3.16,4.39-4.94,6.97c4.35-2.33,8.23-4.42,12.19-6.54
		c-0.66-0.97-1.44-2.06-2.14-3.2c-0.19-0.31-0.14-0.77-0.2-1.16c0.35,0.21,0.84,0.33,1.03,0.63c1.02,1.64,1.93,3.36,2.97,4.99
		c0.31,0.49,0.87,0.86,1.39,1.16c1.35,0.77,2.72,1.51,4.12,2.19c0.51,0.25,1.28,0.63,1.65,0.43c2.06-1.09,4.27-2.12,4.73-4.81
		c0.49-2.87,2.41-4.68,4.64-6.26c1.59-2.09,4.65-2.92,5-6.41c2.01,4.49,4.96,7.71,8.23,10.66c1.91,1.73,3.23,1.85,5.55,0.62
		c0.71-0.37,1.41-0.76,2.08-1.12c0.19,0.16,0.3,0.22,0.36,0.31c1.72,2.25,0.95,5.15,1.94,7.59c0.33,0.81,0.57,1.64,0.87,2.51
		c0.71-0.34,1.07-0.51,1.44-0.68l0,0.01c0.56-0.87,1.06-1.79,1.7-2.59c0.39-0.49,0.96-1.02,1.53-1.13c1.2-0.23,1.56-0.93,1.86-2
		c0.32-1.19,0.8-2.4,1.46-3.44c3.06-4.93,6.7-9.34,7.16-15.76c0.36-5.06,0.68-10.15,0.95-15.23
		C216.58,155.01,216.11,154.18,215.61,153.73z M209.22,174.77c-0.61,1.38-0.74,2.96-1.31,4.36c-1.27,3.16-2.17,6.68-5.94,7.94
		c-0.59,0.2-1.37-0.17-2.07-0.29c-0.77-1.67-0.06-2.83,1.02-4.21c0.95-1.21,1.23-2.94,1.77-4.46c0.42-1.19,0.77-2.41,1.17-3.61
		c0.07-0.22,0.21-0.55,0.37-0.58c3.17-0.64,3-3.6,4.01-5.74c0.29-0.63,0.44-1.32,0.84-1.99
		C208.94,169.06,210.53,171.82,209.22,174.77z"/>
	<path class="st22" d="M180.25,131.56c-1.03,0.8-0.15,5.66,0.53,7.08c1,2.1,1.79,4.31,2.42,6.58c-3.93-3.73-9.13-8.23-9.84-14.03
		c-0.35-2.84-0.9-5.67-2.91-8.1c-0.21,0.53-0.37,0.95-0.62,1.6c-0.27-4.87-0.52-9.49-0.8-14.6c2.07,7.55,5.36,14.06,9.16,20.34
		c-3.49-8.46-6.97-16.92-10.46-25.37c0.1-0.04,0.2-0.08,0.31-0.13C172.09,113.76,176.13,122.58,180.25,131.56z"/>
	<path class="st22" d="M176.47,182.27c0,0-0.06,0.06-0.06,0.06c1.23-0.85,2.48-1.67,3.69-2.55c1.19-0.87,2.1-1.06,2.89,0.55
		c0.6,1.24,1.48,2.34,2.35,3.66c-3.98,1.51-7.85,2.19-12.05,2.17C174.45,184.72,175.46,183.49,176.47,182.27z"/>
	<polygon class="st3" points="82.04,62.17 14.52,227.18 68.14,227.18 112.88,87.75 	"/>
	<polyline class="st4" points="159.96,114.29 163.76,130.32 164.65,152.72 150.55,192.06 126.2,218.28 159.45,112.74 	"/>
	<path class="st4" d="M161.71,76.74c-3.29-2.61-25.42-66.95-25.42-66.95L68.14,227.18L144.9,227l22.59-75.66V93.23L161.71,76.74z"/>
	<polygon class="st22" points="144.9,227 39.76,165.51 14.52,227.18 	"/>
	<polygon class="st2" points="108.06,74.74 80.71,189.13 114.16,86 	"/>
	<polygon class="st2" points="144.9,227 37.16,157 39.76,165.51 	"/>
	<g>
		<path class="st2" d="M215.61,153.73c-2.54-2.31-5.17-4.52-7.55-6.58c-0.07-0.02,0.26,0.02,0.56,0.13c1.41,0.55,2.41,0.5,2.85-1.3
			c0.19-0.76,0.86-1.67,1.54-1.96c0.96-0.4,1.18-0.76,0.82-1.67c-0.15-0.36-0.22-0.81-0.15-1.19c0.45-2.36,0.96-4.71,1.44-7.03
			c-0.94-0.25-1.77-0.23-2.22-0.64c-2.82-2.53-5.84-1.97-8.9-0.69c-1.73,0.72-3.08,3.09-2.86,4.62c0.29,1.96,0.59,3.93,0.73,5.91
			c0.03,0.48-0.59,1.44-0.83,1.42c-1.23-0.13-2.62-0.22-3.6-0.85c-2.26-1.46-4.54-2.72-7.27-2.87c-2.94-0.16-4.92-2.18-6.92-3.87
			c-0.77-0.71-3-5.61-3-5.61l1.75,5.87c0.09,1.42,0.65,2.84,1.11,4.22c1.39,4.2,2.82,8.39,4.24,12.58l0.24-0.07
			c-0.71-2.36-1.42-4.73-2.23-7.43c2.14,1.04,3.91,1.91,5.52,2.7c0,2.52,0.01,4.79-0.01,7.07c0,0.76,0.13,1.6-0.15,2.26
			c-0.95,2.31-0.45,4.54,0.35,6.67c1.55,4.17,3.25,8.29,4.96,12.41c1.24,3,2.58,5.96,3.88,8.94c-0.01,0-0.03-0.01-0.04-0.01
			c-0.03,0.35-0.05,0.7-0.08,1.06c-0.18,0.05-0.36,0.1-0.54,0.16c-3.88-6.21-6.24-13.13-9.14-19.84c0.13,0.63,0.25,1.27,0.4,2.01
			c-0.55-0.21-0.97-0.3-1.29-0.52c-1.46-0.98-2.94-1.95-4.33-3.02c-2.91-2.23-5.09-2.15-7.52,0.53c-0.61,0.68-1.04,1.56-1.42,2.41
			c-1.67,3.68-3.13,7.47-4.98,11.06c-1.11,2.16-2.65,3.94-5.55,4.29c-2.96,0.35-4.9-1.43-7.22-2.61c2.83,1.05,5.64,2.35,8.71,1.44
			c2.12-0.63,4.52-4.45,4.82-7.23c-3.3,0.8-5.7,4.27-9.77,3.26c0.01-0.04,0.03-0.06,0.04-0.09c-0.39-0.07-0.78-0.14-1.16-0.26
			c-0.04-0.01-0.07-0.04-0.11-0.05c-3.27,2.82-6.68,5.5-9.74,8.53c-1.89,1.88-3.16,4.39-4.94,6.97c4.35-2.33,8.23-4.42,12.19-6.54
			c-0.66-0.98-1.44-2.06-2.14-3.2c-0.19-0.31-0.14-0.77-0.2-1.16c0.35,0.21,0.84,0.33,1.03,0.63c1.02,1.64,1.93,3.36,2.97,4.99
			c0.31,0.49,0.87,0.86,1.39,1.16c1.35,0.77,2.72,1.51,4.12,2.19c0.51,0.25,1.28,0.63,1.65,0.43c2.06-1.09,4.27-2.12,4.73-4.81
			c0.49-2.87,2.41-4.68,4.64-6.26c1.59-2.08,4.65-2.92,5-6.41c2.01,4.49,4.96,7.71,8.23,10.66c1.91,1.73,3.23,1.85,5.55,0.62
			c0.71-0.37,1.41-0.76,2.08-1.12c0.19,0.16,0.3,0.22,0.36,0.31c1.72,2.25,0.95,5.15,1.94,7.59c0.33,0.81,0.57,1.64,0.87,2.51
			c0.71-0.34,1.07-0.51,1.44-0.68l0,0.01c0.56-0.87,1.06-1.79,1.7-2.59c0.39-0.49,0.96-1.02,1.53-1.13c1.2-0.23,1.56-0.93,1.86-2
			c0.32-1.19,0.8-2.4,1.46-3.44c3.06-4.93,6.7-9.34,7.16-15.76c0.36-5.06,0.68-10.15,0.95-15.23
			C216.58,155.01,216.11,154.18,215.61,153.73z M209.22,174.77c-0.61,1.38-0.74,2.96-1.31,4.36c-1.27,3.16-2.17,6.68-5.94,7.94
			c-0.59,0.2-1.37-0.17-2.07-0.29c-0.77-1.67-0.06-2.83,1.02-4.21c0.95-1.21,1.23-2.94,1.77-4.46c0.42-1.19,0.77-2.41,1.17-3.61
			c0.07-0.22,0.21-0.55,0.37-0.58c3.17-0.64,3-3.6,4.01-5.74c0.29-0.63,0.44-1.32,0.84-1.99
			C208.94,169.06,210.53,171.82,209.22,174.77z"/>
		<path class="st2" d="M167.74,105.07c3.49,8.46,6.97,16.92,10.46,25.37c-3.8-6.28-7.09-12.79-9.16-20.34
			c0.28,5.11,0.53,9.73,0.8,14.6c0.25-0.65,0.41-1.07,0.62-1.6c2.01,2.43,2.56,5.26,2.91,8.1c0.71,5.8,5.91,10.3,9.84,14.03
			c-0.63-2.28-1.42-4.48-2.42-6.58c-0.68-1.43-1.56-6.28-0.53-7.08c-4.12-8.98-8.16-17.8-12.2-26.62
			C167.95,104.98,167.85,105.03,167.74,105.07z"/>
	</g>
	<path class="st29" d="M176.47,182.27c0,0-0.06,0.06-0.06,0.06c1.23-0.85,2.48-1.67,3.69-2.55c1.19-0.87,2.1-1.06,2.89,0.55
		c0.6,1.24,1.48,2.34,2.35,3.66c-3.98,1.51-7.85,2.19-12.05,2.17C174.45,184.72,175.46,183.49,176.47,182.27z"/>
	<polygon class="st29" points="82.04,62.17 14.52,227.18 68.14,227.18 112.88,87.75 	"/>
	<polyline class="st4" points="159.96,114.29 163.76,130.32 164.65,152.72 150.55,192.06 126.2,218.28 159.45,112.74 	"/>
	<path class="st2" d="M161.71,76.74c-3.29-2.61-25.42-66.95-25.42-66.95L68.14,227.18L144.9,227l22.59-75.66V93.23L161.71,76.74z"/>
	<polygon class="st1" points="144.9,227 39.76,165.51 14.52,227.18 	"/>
	<polygon class="st2" points="108.06,74.74 80.71,189.13 115.16,78 	"/>
	<polygon class="st2" points="144.9,227 37.16,157 39.76,165.51 	"/>
</g>
<g>
	<path class="st2" d="M44.36,307.02L24.7,281.19v25.83H10.45v-58.48H24.7v25.66l19.49-25.66h16.74L38.28,277.2l23.49,29.82H44.36z"
		/>
	<path class="st2" d="M82.77,259.95v11.83h19.08v11H82.77v12.83h21.58v11.41H68.52v-58.48h35.82v11.41H82.77z"/>
	<path class="st2" d="M149.99,296.69h-21.83l-3.5,10.33h-14.91l21.16-58.48h16.5l21.16,58.48h-15.08L149.99,296.69z M146.33,285.69
		l-7.25-21.41l-7.16,21.41H146.33z"/>
	<path class="st2" d="M184.65,305.52c-3.39-1.39-6.1-3.44-8.12-6.16c-2.03-2.72-3.1-6-3.21-9.83h15.16
		c0.22,2.17,0.97,3.82,2.25,4.96c1.28,1.14,2.94,1.71,5,1.71c2.11,0,3.78-0.49,5-1.46c1.22-0.97,1.83-2.32,1.83-4.04
		c0-1.44-0.49-2.64-1.46-3.58c-0.97-0.94-2.17-1.72-3.58-2.33c-1.42-0.61-3.43-1.3-6.04-2.08c-3.78-1.17-6.86-2.33-9.25-3.5
		c-2.39-1.17-4.44-2.89-6.17-5.17c-1.72-2.28-2.58-5.25-2.58-8.91c0-5.44,1.97-9.71,5.91-12.79s9.08-4.62,15.41-4.62
		c6.44,0,11.63,1.54,15.58,4.62c3.94,3.08,6.05,7.37,6.33,12.87h-15.41c-0.11-1.89-0.81-3.37-2.08-4.46
		c-1.28-1.08-2.92-1.62-4.92-1.62c-1.72,0-3.11,0.46-4.17,1.37c-1.06,0.92-1.58,2.24-1.58,3.96c0,1.89,0.89,3.36,2.67,4.42
		c1.78,1.06,4.55,2.19,8.33,3.42c3.78,1.28,6.84,2.5,9.21,3.67c2.36,1.17,4.4,2.86,6.12,5.08c1.72,2.22,2.58,5.08,2.58,8.58
		c0,3.33-0.85,6.36-2.54,9.08c-1.69,2.72-4.15,4.89-7.37,6.5c-3.22,1.61-7.03,2.42-11.41,2.42
		C191.87,307.6,188.04,306.91,184.65,305.52z"/>
	<path class="st2" d="M24.7,320.14v58.48H10.45v-58.48H24.7z"/>
	<path class="st2" d="M87.35,378.62H73.1l-23.83-36.07v36.07H35.03v-58.48h14.25l23.83,36.24v-36.24h14.25V378.62z"/>
	<path class="st2" d="M135.75,323.8c4.61,2.44,8.18,5.87,10.71,10.29c2.53,4.42,3.79,9.51,3.79,15.29c0,5.72-1.26,10.8-3.79,15.25
		c-2.53,4.44-6.11,7.89-10.75,10.33c-4.64,2.44-10.01,3.67-16.12,3.67H97.68v-58.48h21.91C125.75,320.14,131.14,321.36,135.75,323.8
		z M131.25,361.87c3-2.94,4.5-7.11,4.5-12.5c0-5.39-1.5-9.58-4.5-12.58c-3-3-7.19-4.5-12.58-4.5h-6.75v33.99h6.75
		C124.06,366.29,128.25,364.82,131.25,361.87z"/>
	<path class="st2" d="M172.49,320.14v58.48h-14.25v-58.48H172.49z"/>
	<path class="st2" d="M219.22,368.29H197.4l-3.5,10.33h-14.91l21.16-58.48h16.5l21.16,58.48h-15.08L219.22,368.29z M215.56,357.29
		l-7.25-21.41l-7.16,21.41H215.56z"/>
</g>
</svg>
