<?xml version="1.0" encoding="utf-8"?>
<!-- Generator: Adobe Illustrator 27.8.1, SVG Export Plug-In . SVG Version: 6.00 Build 0)  -->
<svg version="1.1" id="Layer_1" xmlns="http://www.w3.org/2000/svg" xmlns:xlink="http://www.w3.org/1999/xlink" x="0px" y="0px"
	 viewBox="0 0 243 386" style="enable-background:new 0 0 243 386;" xml:space="preserve">
<style type="text/css">
	.st0{fill:#FFFCF3;}
	.st1{fill:#081E3D;}
	.st2{fill:#FFFFFF;}
	.st3{fill:#214737;}
	.st4{fill:#FFE783;}
	.st5{fill:#FFFFFF;stroke:#000000;stroke-width:3;stroke-miterlimit:10;}
	.st6{fill:#F7AA3A;}
	.st7{fill:#F97F06;}
	.st8{fill:none;stroke:#000000;stroke-width:10;stroke-miterlimit:10;}
	.st9{fill:none;stroke:#000000;stroke-width:8;stroke-miterlimit:10;}
	.st10{fill:#FFFFFF;stroke:#000000;stroke-miterlimit:10;}
	.st11{fill:none;stroke:#000000;stroke-width:7;stroke-miterlimit:10;}
	.st12{fill:none;stroke:#000000;stroke-width:5;stroke-miterlimit:10;}
	.st13{fill:#F9F8EF;}
	.st14{fill:none;stroke:#213507;stroke-width:8;stroke-miterlimit:10;}
	.st15{fill:#FFC306;}
	.st16{fill:#2B3521;}
	.st17{fill:none;stroke:#214737;stroke-width:9;stroke-miterlimit:10;}
	.st18{fill:#0A2FA5;}
	.st19{fill:#FFFBCC;}
	.st20{fill:none;stroke:#214737;stroke-width:8;stroke-miterlimit:10;}
	.st21{fill:#242330;}
	.st22{fill:#173527;}
	.st23{opacity:0.2;fill:#FFFFFF;}
	.st24{fill:#606060;}
	.st25{fill:#4273B6;}
	.st26{fill:#001109;}
	.st27{fill:none;stroke:#4273B6;stroke-miterlimit:10;}
	.st28{fill:#5485B2;}
	.st29{fill:#223E66;}
	.st30{fill:none;stroke:#5485B2;stroke-miterlimit:10;}
	.st31{fill:none;stroke:#5485B2;stroke-miterlimit:10;stroke-dasharray:15.0287,15.0287;}
	.st32{fill:none;stroke:#5485B2;stroke-miterlimit:10;stroke-dasharray:15.2344,15.2344;}
	.st33{fill:none;stroke:#5485B2;stroke-miterlimit:10;stroke-dasharray:15.0658,15.0658;}
	.st34{fill:none;stroke:#5485B2;stroke-miterlimit:10;stroke-dasharray:15;}
	.st35{fill:none;stroke:#5485B2;stroke-miterlimit:10;stroke-dasharray:15,15;}
</style>
<g>
	<polygon class="st29" points="135.21,140.42 111.45,214.45 101.8,244.52 101.47,245.57 101.19,245.39 59.13,218.06 102.12,112.98 
		128.1,134.53 102.89,239.98 134.33,139.69 134.56,139.88 	"/>
	<polygon class="st1" points="169.55,289.81 87.24,289.92 87.23,289.92 29.69,290 56.75,223.85 100.02,249.15 100.27,249.3 
		150.12,278.45 150.92,278.92 	"/>
	<path class="st28" d="M187.58,128.62c-3.52-2.8-27.27-71.82-27.27-71.82l-22.9,73.05l-2.03,6.49l-1.05,3.35l-31.44,100.29
		l-1.7,5.41l0.28,0.18l0.07,0.05l0.21,0.14l0.04,0.02l48.66,31.62l1.17,0.76l17.93,11.65l12.03-40.28l0.95-3.17l0.38-1.3l0.96-3.19
		v-0.01l0.36-1.21l9.56-32.01v-62.33L187.58,128.62z M150.12,278.45l-49.85-29.15l-0.25-0.15l-12.78,40.77h-0.01L87.21,290
		l82.34-0.19l-18.63-10.89L150.12,278.45z M101.47,245.57l0.07,0.05l0.26-1.1L101.47,245.57z"/>
</g>
</svg>
