<?xml version="1.0" encoding="utf-8"?>
<!-- Generator: Adobe Illustrator 27.8.1, SVG Export Plug-In . SVG Version: 6.00 Build 0)  -->
<svg version="1.1" id="Layer_1" xmlns="http://www.w3.org/2000/svg" xmlns:xlink="http://www.w3.org/1999/xlink" x="0px" y="0px"
	 viewBox="0 0 595 292" style="enable-background:new 0 0 595 292;" xml:space="preserve">
<style type="text/css">
	.st0{fill:#FFFCF3;}
	.st1{fill:#081E3D;}
	.st2{fill:#FFFFFF;}
	.st3{fill:#214737;}
	.st4{fill:#FFE783;}
	.st5{fill:#FFFFFF;stroke:#000000;stroke-width:3;stroke-miterlimit:10;}
	.st6{fill:#F7AA3A;}
	.st7{fill:#F97F06;}
	.st8{fill:none;stroke:#000000;stroke-width:10;stroke-miterlimit:10;}
	.st9{fill:none;stroke:#000000;stroke-width:8;stroke-miterlimit:10;}
	.st10{fill:#FFFFFF;stroke:#000000;stroke-miterlimit:10;}
	.st11{fill:none;stroke:#000000;stroke-width:7;stroke-miterlimit:10;}
	.st12{fill:none;stroke:#000000;stroke-width:5;stroke-miterlimit:10;}
	.st13{fill:#F9F8EF;}
	.st14{fill:none;stroke:#213507;stroke-width:8;stroke-miterlimit:10;}
	.st15{fill:#FFC306;}
	.st16{fill:#2B3521;}
	.st17{fill:none;stroke:#214737;stroke-width:9;stroke-miterlimit:10;}
	.st18{fill:#0A2FA5;}
	.st19{fill:#FFFBCC;}
	.st20{fill:none;stroke:#214737;stroke-width:8;stroke-miterlimit:10;}
	.st21{fill:#242330;}
	.st22{fill:#173527;}
	.st23{opacity:0.2;fill:#FFFFFF;}
	.st24{fill:#606060;}
	.st25{fill:#4273B6;}
	.st26{fill:#001109;}
	.st27{fill:none;stroke:#4273B6;stroke-miterlimit:10;}
	.st28{fill:#5485B2;}
	.st29{fill:#223E66;}
	.st30{fill:none;stroke:#5485B2;stroke-miterlimit:10;}
	.st31{fill:none;stroke:#5485B2;stroke-miterlimit:10;stroke-dasharray:15.0287,15.0287;}
	.st32{fill:none;stroke:#5485B2;stroke-miterlimit:10;stroke-dasharray:15.2344,15.2344;}
	.st33{fill:none;stroke:#5485B2;stroke-miterlimit:10;stroke-dasharray:15.0658,15.0658;}
	.st34{fill:none;stroke:#5485B2;stroke-miterlimit:10;stroke-dasharray:15;}
	.st35{fill:none;stroke:#5485B2;stroke-miterlimit:10;stroke-dasharray:15,15;}
</style>
<polygon class="st3" points="104.02,212.15 104.27,212.3 91.24,252.92 91.23,252.92 91.21,253 33.69,253 60.75,186.85 "/>
<polygon class="st3" points="139.21,103.42 115.45,177.45 105.8,207.52 105.47,208.57 105.19,208.39 63.13,181.06 106.12,75.98 
	132.1,97.53 106.89,202.98 138.33,102.69 138.56,102.88 "/>
<polygon class="st22" points="173.55,252.81 91.24,252.92 91.23,252.92 33.69,253 60.75,186.85 104.02,212.15 104.27,212.3 
	154.12,241.45 154.92,241.92 "/>
<polygon class="st2" points="140.57,101.55 105.79,208.78 105.75,208.76 105.54,208.62 105.8,207.52 106.89,202.98 138.33,102.69 
	139.38,99.34 139.56,99.68 "/>
<g>
	<path class="st29" d="M249.41,174.21c-2.73-2.48-5.55-4.85-8.1-7.06c0.05,0,0.34,0.04,0.6,0.15c1.51,0.59,2.58,0.53,3.06-1.4
		c0.21-0.81,0.92-1.8,1.66-2.11c1.03-0.43,1.26-0.81,0.87-1.79c-0.15-0.39-0.24-0.87-0.16-1.28c0.49-2.53,1.03-5.05,1.55-7.53
		c-1.01-0.28-1.9-0.25-2.39-0.69c-3.02-2.71-6.26-2.11-9.54-0.74c-1.86,0.77-3.31,3.32-3.07,4.96c0.31,2.11,0.63,4.22,0.78,6.34
		c0.04,0.51-0.63,1.55-0.89,1.52c-1.31-0.13-2.8-0.23-3.86-0.91c-2.43-1.57-4.87-2.92-7.8-3.08c-3.16-0.17-5.28-2.33-7.43-4.15
		c-0.79-0.75-3.07-5.69-3.21-5.99l1.87,6.27c0.09,1.53,0.7,3.04,1.19,4.53c1.48,4.5,3.02,8.99,4.54,13.49l0.26-0.08
		c-0.76-2.53-1.53-5.07-2.4-7.97c2.3,1.13,4.2,2.05,5.93,2.9c0,2.7,0.01,5.14-0.01,7.58c0,0.82,0.14,1.72-0.15,2.43
		c-1.02,2.47-0.48,4.87,0.37,7.16c1.66,4.47,3.49,8.89,5.32,13.31c1.33,3.22,2.77,6.39,4.16,9.58c-0.82-1.79-0.06-3.04,1.09-4.51
		c1.02-1.3,1.33-3.16,1.9-4.79c0.46-1.27,0.83-2.58,1.26-3.87c0.08-0.23,0.23-0.58,0.4-0.62c3.4-0.68,3.22-3.87,4.29-6.15
		c0.32-0.67,0.47-1.42,0.9-2.13c-0.15,3.07,1.56,6.04,0.16,9.2c-0.66,1.47-0.8,3.17-1.4,4.68c-1.37,3.39-2.33,7.16-6.38,8.51
		c-0.63,0.21-1.47-0.18-2.22-0.32c-0.01,0-0.03,0-0.04-0.01c-0.03,0.38-0.06,0.76-0.08,1.14c-0.2,0.05-0.39,0.11-0.58,0.17
		c-4.16-6.66-6.7-14.09-9.81-21.29c0.14,0.68,0.27,1.36,0.43,2.16c-0.58-0.23-1.03-0.32-1.39-0.55c-1.56-1.06-3.15-2.09-4.64-3.24
		c-3.12-2.4-5.46-2.3-8.07,0.57c-0.66,0.72-1.11,1.67-1.52,2.58c-1.79,3.95-3.36,8.01-5.34,11.86c-1.19,2.31-2.85,4.23-5.96,4.6
		c-3.15,0.38-5.22-1.51-7.69-2.77v-0.01c3.02,1.12,6.02,2.49,9.29,1.52c2.28-0.67,4.85-4.77,5.17-7.75
		c-3.54,0.86-6.12,4.58-10.48,3.5c0.01-0.04,0.03-0.06,0.05-0.09c-0.42-0.07-0.84-0.16-1.25-0.29c-0.04-0.01-0.07-0.04-0.11-0.06
		c-0.77,0.66-1.54,1.31-2.31,1.96c-2.17,1.83-4.36,3.64-6.43,5.57c-0.58,0.53-1.15,1.07-1.71,1.63c-2.03,2.01-3.38,4.71-5.3,7.47
		c1.39-0.75,2.74-1.47,4.05-2.18l0.02-0.01c2.3-1.23,4.52-2.42,6.72-3.6c0.76-0.41,1.52-0.81,2.28-1.22
		c-0.41-0.61-0.87-1.27-1.33-1.95c-0.33-0.48-0.66-0.98-0.97-1.49c-0.2-0.33-0.15-0.82-0.21-1.24c0.38,0.22,0.9,0.35,1.11,0.68
		c0.15,0.25,0.31,0.5,0.45,0.75c0.92,1.53,1.78,3.1,2.73,4.6c0.33,0.53,0.94,0.93,1.49,1.25c1.45,0.83,2.93,1.61,4.42,2.35
		c0.55,0.27,1.37,0.68,1.78,0.46c2.21-1.16,4.57-2.27,5.07-5.16c0.52-3.08,2.59-5.02,4.98-6.71c1.71-2.24,4.98-3.14,5.37-6.88
		c2.15,4.81,5.31,8.27,8.82,11.44c2.06,1.86,3.47,1.98,5.96,0.67c0.76-0.4,1.52-0.81,2.23-1.2c0.2,0.17,0.32,0.24,0.39,0.33
		c1.84,2.42,1.01,5.53,2.08,8.15c0.35,0.86,0.61,1.76,0.93,2.7c0.77-0.36,1.15-0.55,1.54-0.73c0.6-0.94,1.13-1.92,1.82-2.78
		c0.42-0.52,1.04-1.09,1.65-1.21c1.28-0.25,1.68-1,1.99-2.14c0.34-1.29,0.86-2.57,1.56-3.7c3.29-5.29,7.19-10.02,7.68-16.91
		c0.39-5.43,0.73-10.88,1.02-16.33C250.45,175.58,249.94,174.69,249.41,174.21z"/>
	<path class="st29" d="M211.47,150.43c-1.11,0.86-0.16,6.07,0.57,7.6c1.08,2.26,1.92,4.62,2.6,7.06c-4.21-4-9.79-8.83-10.55-15.05
		c-0.37-3.05-0.97-6.08-3.12-8.69c-0.22,0.57-0.39,1.02-0.66,1.72c-0.29-5.22-0.56-10.18-0.86-15.66c2.22,8.1,5.75,15.08,9.83,21.82
		c-3.74-9.07-7.48-18.15-11.22-27.22c0.11-0.05,0.22-0.09,0.33-0.14C202.72,131.33,207.06,140.79,211.47,150.43z"/>
	<path class="st29" d="M207.42,204.82c0,0-0.07,0.06-0.07,0.06c1.32-0.91,2.66-1.79,3.96-2.74c1.27-0.93,2.26-1.14,3.1,0.59
		c0.65,1.33,1.59,2.51,2.52,3.93c-4.27,1.62-8.42,2.35-12.93,2.33C205.26,207.45,206.34,206.13,207.42,204.82z"/>
	<path class="st29" d="M234.7,219.34c0,5.07,0,10.15,0,15.22c-0.06,0-0.13,0.01-0.19,0.01c-0.24-4.36-0.53-8.71-0.68-13.07
		C233.81,220.79,234.4,220.06,234.7,219.34C234.7,219.33,234.7,219.34,234.7,219.34z"/>
	<path class="st29" d="M249.41,174.21c-2.73-2.48-5.55-4.85-8.1-7.06c0.05,0,0.34,0.04,0.6,0.15c1.51,0.59,2.58,0.53,3.06-1.4
		c0.21-0.81,0.92-1.8,1.66-2.11c1.03-0.43,1.26-0.81,0.87-1.79c-0.15-0.39-0.24-0.87-0.16-1.28c0.49-2.53,1.03-5.05,1.55-7.53
		c-1.01-0.28-1.9-0.25-2.39-0.69c-3.02-2.71-6.26-2.11-9.54-0.74c-1.86,0.77-3.31,3.32-3.07,4.96c0.31,2.11,0.63,4.22,0.78,6.34
		c0.04,0.51-0.63,1.55-0.89,1.52c-1.31-0.13-2.8-0.23-3.86-0.91c-2.43-1.57-4.87-2.92-7.8-3.08c-3.16-0.17-5.28-2.33-7.43-4.15
		c-0.79-0.75-3.07-5.69-3.21-5.99l1.87,6.27c0.09,1.53,0.7,3.04,1.19,4.53c1.48,4.5,3.02,8.99,4.54,13.49l0.26-0.08
		c-0.76-2.53-1.53-5.07-2.4-7.97c2.3,1.13,4.2,2.05,5.93,2.9c0,2.7,0.01,5.14-0.01,7.58c0,0.82,0.14,1.72-0.15,2.43
		c-1.02,2.47-0.48,4.87,0.37,7.16c1.66,4.47,3.49,8.89,5.32,13.31c1.33,3.22,2.77,6.39,4.16,9.58c-0.82-1.79-0.06-3.04,1.09-4.51
		c1.02-1.3,1.33-3.16,1.9-4.79c0.46-1.27,0.83-2.58,1.26-3.87c0.08-0.23,0.23-0.58,0.4-0.62c3.4-0.68,3.22-3.87,4.29-6.15
		c0.32-0.67,0.47-1.42,0.9-2.13c-0.15,3.07,1.56,6.04,0.16,9.2c-0.66,1.47-0.8,3.17-1.4,4.68c-1.37,3.39-2.33,7.16-6.38,8.51
		c-0.63,0.21-1.47-0.18-2.22-0.32c-0.01,0-0.03,0-0.04-0.01c-0.03,0.38-0.06,0.76-0.08,1.14c-0.2,0.05-0.39,0.11-0.58,0.17
		c-4.16-6.66-6.7-14.09-9.81-21.29c0.14,0.68,0.27,1.36,0.43,2.16c-0.58-0.23-1.03-0.32-1.39-0.55c-1.56-1.06-3.15-2.09-4.64-3.24
		c-3.12-2.4-5.46-2.3-8.07,0.57c-0.66,0.72-1.11,1.67-1.52,2.58c-1.79,3.95-3.36,8.01-5.34,11.86c-1.19,2.31-2.85,4.23-5.96,4.6
		c-3.15,0.38-5.22-1.51-7.69-2.77v-0.01c3.02,1.12,6.02,2.49,9.29,1.52c2.28-0.67,4.85-4.77,5.17-7.75
		c-3.54,0.86-6.12,4.58-10.48,3.5c0.01-0.04,0.03-0.06,0.05-0.09c-0.42-0.07-0.84-0.16-1.25-0.29c-0.04-0.01-0.07-0.04-0.11-0.06
		c-0.77,0.66-1.54,1.31-2.31,1.96c-2.17,1.83-4.36,3.64-6.43,5.57c-0.58,0.53-1.15,1.07-1.71,1.63c-2.03,2.01-3.38,4.71-5.3,7.47
		c1.39-0.75,2.74-1.47,4.05-2.18l0.02-0.01c2.3-1.23,4.52-2.42,6.72-3.6c0.76-0.41,1.52-0.81,2.28-1.22
		c-0.41-0.61-0.87-1.27-1.33-1.95c-0.33-0.48-0.66-0.98-0.97-1.49c-0.2-0.33-0.15-0.82-0.21-1.24c0.38,0.22,0.9,0.35,1.11,0.68
		c0.15,0.25,0.31,0.5,0.45,0.75c0.92,1.53,1.78,3.1,2.73,4.6c0.33,0.53,0.94,0.93,1.49,1.25c1.45,0.83,2.93,1.61,4.42,2.35
		c0.55,0.27,1.37,0.68,1.78,0.46c2.21-1.16,4.57-2.27,5.07-5.16c0.52-3.08,2.59-5.02,4.98-6.71c1.71-2.24,4.98-3.14,5.37-6.88
		c2.15,4.81,5.31,8.27,8.82,11.44c2.06,1.86,3.47,1.98,5.96,0.67c0.76-0.4,1.52-0.81,2.23-1.2c0.2,0.17,0.32,0.24,0.39,0.33
		c1.84,2.42,1.01,5.53,2.08,8.15c0.35,0.86,0.61,1.76,0.93,2.7c0.77-0.36,1.15-0.55,1.54-0.73c0.6-0.94,1.13-1.92,1.82-2.78
		c0.42-0.52,1.04-1.09,1.65-1.21c1.28-0.25,1.68-1,1.99-2.14c0.34-1.29,0.86-2.57,1.56-3.7c3.29-5.29,7.19-10.02,7.68-16.91
		c0.39-5.43,0.73-10.88,1.02-16.33C250.45,175.58,249.94,174.69,249.41,174.21z"/>
	<path class="st29" d="M211.47,150.43c-1.11,0.86-0.16,6.07,0.57,7.6c1.08,2.26,1.92,4.62,2.6,7.06c-4.21-4-9.79-8.83-10.55-15.05
		c-0.37-3.05-0.97-6.08-3.12-8.69c-0.22,0.57-0.39,1.02-0.66,1.72c-0.29-5.22-0.56-10.18-0.86-15.66c2.22,8.1,5.75,15.08,9.83,21.82
		c-3.74-9.07-7.48-18.15-11.22-27.22c0.11-0.05,0.22-0.09,0.33-0.14C202.72,131.33,207.06,140.79,211.47,150.43z"/>
	<path class="st29" d="M207.42,204.82c0,0-0.07,0.06-0.07,0.06c1.32-0.91,2.66-1.79,3.96-2.74c1.27-0.93,2.26-1.14,3.1,0.59
		c0.65,1.33,1.59,2.51,2.52,3.93c-4.27,1.62-8.42,2.35-12.93,2.33C205.26,207.45,206.34,206.13,207.42,204.82z"/>
	<path class="st29" d="M234.7,219.34c0,5.07,0,10.15,0,15.22c-0.06,0-0.13,0.01-0.19,0.01c-0.24-4.36-0.53-8.71-0.68-13.07
		C233.81,220.79,234.4,220.06,234.7,219.34C234.7,219.33,234.7,219.34,234.7,219.34z"/>
</g>
<polygon class="st29" points="104.02,212.15 104.27,212.3 91.24,252.92 91.23,252.92 91.21,253 33.69,253 60.75,186.85 "/>
<polygon class="st2" points="141.64,92.96 139.56,99.68 138.56,102.88 115.45,177.45 105.75,208.76 105.54,208.62 105.8,207.52 
	106.89,202.98 138.33,102.69 139.38,99.34 141.41,92.85 "/>
<g>
	<polygon class="st29" points="139.21,103.42 115.45,177.45 105.8,207.52 105.47,208.57 105.19,208.39 63.13,181.06 106.12,75.98 
		132.1,97.53 106.89,202.98 138.33,102.69 138.56,102.88 	"/>
	<polygon class="st1" points="173.55,252.81 91.24,252.92 91.23,252.92 33.69,253 60.75,186.85 104.02,212.15 104.27,212.3 
		154.12,241.45 154.92,241.92 	"/>
	<path class="st28" d="M191.58,91.62c-3.52-2.8-27.27-71.82-27.27-71.82l-22.9,73.05l-2.03,6.49l-1.05,3.35l-31.44,100.29l-1.7,5.41
		l0.28,0.18l0.07,0.05l0.21,0.14l0.04,0.02l48.66,31.62l1.17,0.76l17.93,11.65l12.03-40.28l0.95-3.17l0.38-1.3l0.96-3.19v-0.01
		l0.36-1.21l9.56-32.01v-62.33L191.58,91.62z M154.12,241.45l-49.85-29.15l-0.25-0.15l-12.78,40.77h-0.01L91.21,253l82.34-0.19
		l-18.63-10.89L154.12,241.45z M105.47,208.57l0.07,0.05l0.26-1.1L105.47,208.57z"/>
</g>
<g>
	<path class="st25" d="M308.28,138.44l-22.42-29.45v29.45h-16.25V71.75h16.25v29.26l22.23-29.26h19.1l-25.84,32.68l26.79,34.01
		H308.28z"/>
	<path class="st25" d="M352.08,84.76v13.49h21.75v12.54h-21.75v14.63h24.6v13.02h-40.85V71.75h40.85v13.02H352.08z"/>
	<path class="st25" d="M428.74,126.66h-24.89l-3.99,11.78h-17.01l24.13-66.69h18.81l24.13,66.69h-17.2L428.74,126.66z
		 M424.56,114.12l-8.27-24.42l-8.17,24.42H424.56z"/>
	<path class="st25" d="M468.26,136.73c-3.86-1.58-6.95-3.93-9.26-7.03c-2.31-3.1-3.53-6.84-3.66-11.21h17.29
		c0.25,2.47,1.11,4.36,2.57,5.65c1.46,1.3,3.36,1.95,5.7,1.95c2.41,0,4.31-0.55,5.7-1.66c1.39-1.11,2.09-2.64,2.09-4.61
		c0-1.65-0.56-3.01-1.66-4.09c-1.11-1.08-2.47-1.96-4.08-2.66c-1.62-0.7-3.91-1.49-6.89-2.38c-4.31-1.33-7.82-2.66-10.54-3.99
		c-2.72-1.33-5.07-3.29-7.03-5.89c-1.96-2.6-2.95-5.99-2.95-10.17c0-6.21,2.25-11.07,6.75-14.58c4.5-3.52,10.36-5.27,17.58-5.27
		c7.35,0,13.27,1.76,17.77,5.27c4.5,3.52,6.9,8.41,7.22,14.68h-17.58c-0.13-2.15-0.92-3.85-2.38-5.08c-1.46-1.24-3.33-1.85-5.6-1.85
		c-1.96,0-3.55,0.52-4.75,1.57c-1.2,1.05-1.81,2.55-1.81,4.51c0,2.15,1.01,3.83,3.04,5.04c2.03,1.2,5.19,2.5,9.5,3.9
		c4.31,1.46,7.81,2.85,10.5,4.18c2.69,1.33,5.02,3.26,6.98,5.8c1.96,2.53,2.95,5.8,2.95,9.79c0,3.8-0.97,7.25-2.9,10.36
		c-1.93,3.1-4.74,5.57-8.41,7.41c-3.67,1.84-8.01,2.76-13.01,2.76C476.49,139.1,472.12,138.31,468.26,136.73z"/>
	<path class="st1" d="M285.86,153.39v66.69h-16.25v-66.69H285.86z"/>
	<path class="st1" d="M357.3,220.08h-16.25l-27.17-41.14v41.14h-16.25v-66.69h16.25l27.17,41.33v-41.33h16.25V220.08z"/>
	<path class="st1" d="M412.5,157.57c5.26,2.79,9.33,6.7,12.21,11.73c2.88,5.04,4.32,10.85,4.32,17.43c0,6.52-1.44,12.32-4.32,17.39
		c-2.88,5.07-6.97,8.99-12.26,11.78c-5.29,2.79-11.42,4.18-18.38,4.18h-24.99v-66.69h24.99C401.1,153.39,407.24,154.79,412.5,157.57
		z M407.37,200.99c3.42-3.36,5.13-8.11,5.13-14.25c0-6.14-1.71-10.93-5.13-14.35s-8.2-5.13-14.35-5.13h-7.69v38.76h7.69
		C399.16,206.02,403.95,204.35,407.37,200.99z"/>
	<path class="st1" d="M454.39,153.39v66.69h-16.25v-66.69H454.39z"/>
	<path class="st1" d="M507.69,208.3H482.8l-3.99,11.78H461.8l24.13-66.69h18.81l24.13,66.69h-17.2L507.69,208.3z M503.51,195.76
		l-8.27-24.42l-8.17,24.42H503.51z"/>
</g>
</svg>
